<svg xmlns="http://www.w3.org/2000/svg" xmlns:xlink="http://www.w3.org/1999/xlink" viewBox="74.13 322.8 876.89 369.56">
	<path transform="scale(2 2)" d="M53.5101 171.674C50.6039 172.575 48.3897 173.314 47.6446 176.622C47.5653 201.605 52.1412 200.93 72.922 207.789L100.248 216.82C107.75 219.336 119.031 221.14 110.477 230.707C105.79 231.044 71.6131 218.18 64.2548 216.235C63.9752 218.185 64.1026 220.082 64.2548 222.034C64.2832 240.988 73.1078 243.533 88.4379 248.441C93.7493 250.142 114.637 255.707 116.902 260.352C116.511 269.146 109.991 266.752 103.937 264.766L90.9228 260.502C88.2597 259.631 85.5126 258.544 82.7551 258.055C82.6567 264.563 83.8384 271.064 88.5033 275.932C97.5957 285.422 110.817 280.774 122.141 282.268C124.823 284.081 125.278 285.978 125.27 288.992C122.272 295.035 111.736 293.027 106.169 292.971C80.9262 292.715 71.69 277.486 72.2219 253.805C54.5423 246.326 53.4675 229.667 53.5101 212.595C46.7259 208.788 40.662 202.892 38.3535 195.287C36.6023 189.518 36.383 174.946 39.2997 169.62C46.6675 156.168 59.679 162.477 70.2522 165.962L116.037 181.29C120.587 182.836 125.215 183.124 126.629 188.356C126.061 191.279 125.151 193.106 122.141 194.154C114.592 192.877 106.344 189.335 99.0045 186.903C83.8332 181.875 68.5871 176.975 53.5101 171.674Z"/>
	<path transform="scale(2 2)" d="M464.625 176.622C461.878 170.424 457.805 172.621 452.935 174.172L414.767 186.681C409.844 188.323 404.935 190.144 399.952 191.584C397.585 190.963 395.951 190.266 394.682 187.993C390.996 181.387 402.351 179.355 406.377 178.08L444.517 165.575C448.634 164.217 452.97 162.5 457.247 161.808C476.181 158.745 478.292 186.227 473.007 197.878C469.959 204.598 464.947 209.172 458.497 212.595C458.527 227.991 457.472 247.265 440.507 253.805C440.89 264.445 439.492 274.951 431.982 283.112C421.695 294.29 409.154 292.873 395.528 292.965C386.082 293.029 377.974 295.729 382.999 282.268L383.989 282.308C387.91 282.435 391.876 282.268 395.802 282.274C415.685 282.306 428.899 282.044 429.415 258.055C424.341 258.854 414.347 262.997 409.023 264.876C402.352 267.229 395.995 269.838 395.654 260.352C397.566 256.216 403.479 255.362 407.363 254.079L422.225 249.047C439.261 243.265 446.446 242.207 447.968 222.034C448.097 220.095 448.031 218.176 447.968 216.235C437.126 218.156 411.883 230.448 404.553 229.734C401.126 227.716 398.84 223.056 403.018 220.252C405.767 218.408 410.198 217.573 413.38 216.51L438.216 208.299C460.811 200.909 464.771 201.893 464.625 176.622Z"/>
	<path fill="white" transform="scale(2 2)" d="M464.625 176.622C464.771 201.893 460.811 200.909 438.216 208.299L413.38 216.51C410.198 217.573 405.767 218.408 403.018 220.252C398.84 223.056 401.126 227.716 404.553 229.734C402.072 232.171 404.041 236.071 407.578 235.391C412.059 234.529 416.749 232.437 421.082 230.936C429.746 227.935 439.171 224.606 447.968 222.034C446.446 242.207 439.261 243.265 422.225 249.047L407.363 254.079C403.479 255.362 397.566 256.216 395.654 260.352C391.64 261.78 389.731 266.099 386.396 268.287C388.425 255.701 393.665 238.509 396.902 225.646C399.316 216.056 401.96 207.313 399.952 197.431C419.901 189.794 444.154 182.127 464.625 176.622Z"/>
	<path fill="white" transform="scale(2 2)" d="M47.6446 176.622C64.0322 181.404 80.3377 186.989 96.5114 192.436C103.688 194.854 113.461 197.398 119.924 200.919C123.615 202.931 121.959 209.488 121.626 212.776C119.93 229.564 119.563 243.623 122.141 260.352C120.419 260.569 118.617 260.646 116.902 260.352C114.637 255.707 93.7493 250.142 88.4379 248.441C73.1078 243.533 64.2832 240.988 64.2548 222.034C65.9702 223.737 103.365 234.419 108.407 235.684C109.124 234.034 109.846 232.392 110.477 230.707C119.031 221.14 107.75 219.336 100.248 216.82L72.922 207.789C52.1412 200.93 47.5653 201.605 47.6446 176.622Z"/>
	<path transform="scale(2 2)" d="M173.024 282.85C172.548 286.31 172.463 289.882 172.17 293.368L170.264 315.566C169.566 323.806 169.756 332.241 163.703 338.637C156.05 346.722 141.856 347.139 133.879 339.306C125.051 330.637 128.841 316.585 129.755 305.674L137.389 219.805C140.545 187.454 142.133 184.622 172.885 184.632L197.031 184.639L218.762 184.635C241.359 184.451 247.262 185.203 252.005 207.308L255.415 223.156C257.449 232.555 260.692 243.04 261.5 252.497C262.548 250.201 263.411 247.802 264.586 245.567C272.491 230.527 294.046 233.298 299.685 252.497C304.419 240.756 312.774 232.81 326.18 237.778C333.444 240.47 335.904 245.924 338.956 252.497C339.294 247.498 340.733 242.621 341.962 237.783L349.248 208.349C350.313 204.026 351.074 198.858 353.252 194.945C358.794 184.986 371.393 182.843 380.799 188.282C394.321 196.1 390.074 208.084 387.123 219.91L362.236 320.392C361.064 325.082 360.427 330.318 357.969 334.527C352.25 344.32 339.218 349.006 329.145 342.818C322.49 338.729 320.444 332.478 318.766 325.24C314.289 332.699 313.284 340.228 304.677 344.403C294.261 349.456 283.18 343.095 278.529 333.346C277.94 331.972 277.396 330.673 277.076 329.206C269.714 348.813 245.23 352.123 237.756 333.056C236.381 329.546 235.814 325.728 235.069 322.048L224.088 269.853C220.952 254.805 217.683 239.809 214.773 224.71L177.192 224.71C176.239 230.705 176.112 236.947 175.411 242.998C182.41 243.346 189.6 243 196.622 242.982C204.056 242.963 212.683 242.035 213.211 252.177C213.597 259.592 211.285 271.201 206.098 276.726C197.995 285.359 183.8 282.501 173.024 282.85ZM226.074 195.223L166.474 195.209C159.96 195.2 151.499 194.619 150.004 203.069C148.577 211.139 148.239 219.642 147.491 227.809L140.197 309.333C139.681 315.641 136.757 327.798 142.312 332.299C148.092 336.983 156.816 333.118 158.168 326.161C159.321 320.226 159.435 313.762 159.957 307.736L163.099 272.06L182.421 272.069C198.411 272.108 200.999 270.956 202.336 253.805L164.276 253.805C164.21 240.546 167.363 226.972 167.171 213.829L223.156 213.829L244.898 316.654C245.911 321.477 246.437 330.445 250.972 333.457C261.653 340.551 266.123 327.577 268.752 320.556C272.321 311.024 276.343 301.346 279.327 291.625C280.129 297.333 281.809 303.035 283.118 308.652L286.363 322.053C288.017 328.662 289.661 336.763 298.792 335.045C303.65 334.131 305.185 329.262 306.729 325.24C310.129 313.49 315.616 302.311 318.766 290.543C321.68 299.547 327.836 324.16 331.766 331.111C335.244 337.263 345.64 336.289 348.334 329.857C350.682 324.253 351.894 317.671 353.398 311.777L377.089 215.131C378.29 210.153 381.3 204.027 377.666 199.478C372.967 193.595 363.942 195.916 361.734 202.663C360.168 207.45 359.264 212.6 358.083 217.503L342.877 277.354C341.626 282.085 339.936 286.845 338.956 291.625C336.469 282.492 330.075 258.343 326.433 250.921C323.913 245.783 315.024 246.152 312.344 251.005C308.598 257.79 301.645 282.781 299.685 290.543C297.524 286.16 296.419 281.489 295.108 276.804L290.751 260.966C289.524 256.363 289.014 249.412 283.754 247.554C274.61 244.324 272.806 254.284 270.606 260.52L263.56 280.036C262.17 283.856 260.965 288.057 259.01 291.625L245.059 227.245C243.314 219.077 242.163 208.085 239.237 200.472C237.228 195.244 230.761 194.965 226.074 195.223Z"/>
	<path fill="white" transform="scale(2 2)" d="M163.099 272.06L159.957 307.736C159.435 313.762 159.321 320.226 158.168 326.161C156.816 333.118 148.092 336.983 142.312 332.299C136.757 327.798 139.681 315.641 140.197 309.333L147.491 227.809C148.239 219.642 148.577 211.139 150.004 203.069C151.499 194.619 159.96 195.2 166.474 195.209L226.074 195.223C230.761 194.965 237.228 195.244 239.237 200.472C242.163 208.085 243.314 219.077 245.059 227.245L259.01 291.625C260.965 288.057 262.17 283.856 263.56 280.036L270.606 260.52C272.806 254.284 274.61 244.324 283.754 247.554C289.014 249.412 289.524 256.363 290.751 260.966L295.108 276.804C296.419 281.489 297.524 286.16 299.685 290.543C301.645 282.781 308.598 257.79 312.344 251.005C315.024 246.152 323.913 245.783 326.433 250.921C330.075 258.343 336.469 282.492 338.956 291.625C339.936 286.845 341.626 282.085 342.877 277.354L358.083 217.503C359.264 212.6 360.168 207.45 361.734 202.663C363.942 195.916 372.967 193.595 377.666 199.478C381.3 204.027 378.29 210.153 377.089 215.131L353.398 311.777C351.894 317.671 350.682 324.253 348.334 329.857C345.64 336.289 335.244 337.263 331.766 331.111C327.836 324.16 321.68 299.547 318.766 290.543C315.616 302.311 310.129 313.49 306.729 325.24C305.185 329.262 303.65 334.131 298.792 335.045C289.661 336.763 288.017 328.662 286.363 322.053L283.118 308.652C281.809 303.035 280.129 297.333 279.327 291.625C276.343 301.346 272.321 311.024 268.752 320.556C266.123 327.577 261.653 340.551 250.972 333.457C246.437 330.445 245.911 321.477 244.898 316.654L223.156 213.829L167.171 213.829C167.363 226.972 164.21 240.546 164.276 253.805L202.336 253.805C200.999 270.956 198.411 272.108 182.421 272.069L163.099 272.06Z"/>
	<path fill="white" transform="scale(2 2)" d="M386.396 268.287C389.731 266.099 391.64 261.78 395.654 260.352C395.995 269.838 402.352 267.229 409.023 264.876C414.347 262.997 424.341 258.854 429.415 258.055C428.899 282.044 415.685 282.306 395.802 282.274C391.876 282.268 387.91 282.435 383.989 282.308L382.999 282.268C384.311 277.686 385.229 272.915 386.396 268.287Z"/>
	<path fill="white" transform="scale(2 2)" d="M116.902 260.352C118.617 260.646 120.419 260.569 122.141 260.352C123.017 263.978 123.818 267.657 124.88 271.234C127.003 278.376 131.438 283.009 125.27 288.992C125.278 285.978 124.823 284.081 122.141 282.268C110.817 280.774 97.5957 285.422 88.5033 275.932C83.8384 271.064 82.6567 264.563 82.7551 258.055C85.5126 258.544 88.2597 259.631 90.9228 260.502L103.937 264.766C109.991 266.752 116.511 269.146 116.902 260.352Z"/>
</svg>